<svg id="visual" viewBox="0 0 1920 800" width="1920" height="800" xmlns="http://www.w3.org/2000/svg"
    xmlns:xlink="http://www.w3.org/1999/xlink" version="1.1">
    <rect x="0" y="0" width="1920" height="800" fill="#222222"></rect>
    <defs>
        <linearGradient id="grad1_0" x1="58.3%" y1="100%" x2="100%" y2="0%">
            <stop offset="2.0000000000000036%" stop-color="#ff8b20" stop-opacity="1"></stop>
            <stop offset="98%" stop-color="#ff8b20" stop-opacity="1"></stop>
        </linearGradient>
    </defs>
    <defs>
        <linearGradient id="grad1_1" x1="58.3%" y1="100%" x2="100%" y2="0%">
            <stop offset="2.0000000000000036%" stop-color="#ff8b20" stop-opacity="1"></stop>
            <stop offset="98%" stop-color="#b16627" stop-opacity="1"></stop>
        </linearGradient>
    </defs>
    <defs>
        <linearGradient id="grad1_2" x1="58.3%" y1="100%" x2="100%" y2="0%">
            <stop offset="2.0000000000000036%" stop-color="#674327" stop-opacity="1"></stop>
            <stop offset="98%" stop-color="#b16627" stop-opacity="1"></stop>
        </linearGradient>
    </defs>
    <defs>
        <linearGradient id="grad1_3" x1="58.3%" y1="100%" x2="100%" y2="0%">
            <stop offset="2.0000000000000036%" stop-color="#674327" stop-opacity="1"></stop>
            <stop offset="98%" stop-color="#222222" stop-opacity="1"></stop>
        </linearGradient>
    </defs>
    <defs>
        <linearGradient id="grad2_0" x1="0%" y1="100%" x2="41.7%" y2="0%">
            <stop offset="2.0000000000000036%" stop-color="#ff8b20" stop-opacity="1"></stop>
            <stop offset="98%" stop-color="#ff8b20" stop-opacity="1"></stop>
        </linearGradient>
    </defs>
    <defs>
        <linearGradient id="grad2_1" x1="0%" y1="100%" x2="41.7%" y2="0%">
            <stop offset="2.0000000000000036%" stop-color="#b16627" stop-opacity="1"></stop>
            <stop offset="98%" stop-color="#ff8b20" stop-opacity="1"></stop>
        </linearGradient>
    </defs>
    <defs>
        <linearGradient id="grad2_2" x1="0%" y1="100%" x2="41.7%" y2="0%">
            <stop offset="2.0000000000000036%" stop-color="#b16627" stop-opacity="1"></stop>
            <stop offset="98%" stop-color="#674327" stop-opacity="1"></stop>
        </linearGradient>
    </defs>
    <defs>
        <linearGradient id="grad2_3" x1="0%" y1="100%" x2="41.7%" y2="0%">
            <stop offset="2.0000000000000036%" stop-color="#222222" stop-opacity="1"></stop>
            <stop offset="98%" stop-color="#674327" stop-opacity="1"></stop>
        </linearGradient>
    </defs>
    <g transform="translate(1920, 800)">
        <path
            d="M-600 0C-543.4 -21.9 -486.8 -43.8 -436.2 -57.4C-385.7 -71 -341.2 -76.3 -326.5 -87.5C-311.8 -98.6 -326.9 -115.7 -343.7 -142.4C-360.5 -169.1 -378.9 -205.4 -346.4 -200C-313.9 -194.6 -230.4 -147.3 -245.9 -188.7C-261.5 -230.2 -376.1 -360.4 -367.7 -367.7C-359.3 -375 -228 -259.5 -194.2 -253.1C-160.3 -246.6 -223.9 -349.3 -247 -427.8C-270.1 -506.3 -252.6 -560.7 -212.8 -513.7C-172.9 -466.6 -110.7 -318.1 -89 -332.3C-67.4 -346.4 -86.4 -523.1 -78.3 -594.9C-70.2 -666.6 -35.1 -633.3 0 -600L0 0Z"
            fill="#453225"></path>
        <path
            d="M-450 0C-407.5 -16.4 -365.1 -32.9 -327.2 -43.1C-289.3 -53.3 -255.9 -57.2 -244.9 -65.6C-233.8 -74 -245.2 -86.7 -257.8 -106.8C-270.4 -126.8 -284.2 -154.1 -259.8 -150C-235.4 -145.9 -172.8 -110.4 -184.5 -141.5C-196.1 -172.6 -282 -270.3 -275.8 -275.8C-269.5 -281.3 -171 -194.6 -145.6 -189.8C-120.3 -185 -167.9 -262 -185.3 -320.9C-202.6 -379.8 -189.5 -420.5 -159.6 -385.3C-129.7 -350 -83 -238.6 -66.8 -249.2C-50.5 -259.8 -64.8 -392.4 -58.7 -446.2C-52.7 -499.9 -26.3 -475 0 -450L0 0Z"
            fill="#8b5428"></path>
        <path
            d="M-300 0C-271.7 -11 -243.4 -21.9 -218.1 -28.7C-192.8 -35.5 -170.6 -38.2 -163.2 -43.7C-155.9 -49.3 -163.4 -57.8 -171.8 -71.2C-180.2 -84.5 -189.5 -102.7 -173.2 -100C-156.9 -97.3 -115.2 -73.6 -123 -94.4C-130.7 -115.1 -188 -180.2 -183.8 -183.8C-179.7 -187.5 -114 -129.8 -97.1 -126.5C-80.2 -123.3 -112 -174.6 -123.5 -213.9C-135 -253.2 -126.3 -280.4 -106.4 -256.8C-86.5 -233.3 -55.3 -159.1 -44.5 -166.1C-33.7 -173.2 -43.2 -261.6 -39.2 -297.4C-35.1 -333.3 -17.6 -316.6 0 -300L0 0Z"
            fill="#d77825"></path>
        <path
            d="M-150 0C-135.8 -5.5 -121.7 -11 -109.1 -14.4C-96.4 -17.8 -85.3 -19.1 -81.6 -21.9C-77.9 -24.7 -81.7 -28.9 -85.9 -35.6C-90.1 -42.3 -94.7 -51.4 -86.6 -50C-78.5 -48.6 -57.6 -36.8 -61.5 -47.2C-65.4 -57.5 -94 -90.1 -91.9 -91.9C-89.8 -93.8 -57 -64.9 -48.5 -63.3C-40.1 -61.7 -56 -87.3 -61.8 -107C-67.5 -126.6 -63.2 -140.2 -53.2 -128.4C-43.2 -116.7 -27.7 -79.5 -22.3 -83.1C-16.8 -86.6 -21.6 -130.8 -19.6 -148.7C-17.6 -166.6 -8.8 -158.3 0 -150L0 0Z"
            fill="#ff8b20"></path>
    </g>
    <g transform="translate(0, 0)">
        <path
            d="M600 0C577.9 23.3 555.8 46.6 557.2 73.4C558.5 100.2 583.3 130.5 579.6 155.3C575.8 180.1 543.4 199.5 496.1 205.5C448.9 211.5 386.7 204.3 348.1 201C309.6 197.7 294.5 198.5 322.9 247.8C351.3 297 423 394.7 415.1 415.1C407.1 435.5 319.5 378.5 269.1 350.7C218.6 322.8 205.3 323.9 199 344.7C192.7 365.4 193.5 405.8 185.2 447.2C176.9 488.5 159.5 530.8 132.8 495.5C106.1 460.3 70 347.5 46.3 352C22.7 356.5 11.3 478.2 0 600L0 0Z"
            fill="#453225"></path>
        <path
            d="M450 0C433.4 17.5 416.9 34.9 417.9 55C418.9 75.1 437.5 97.8 434.7 116.5C431.8 135.1 407.5 149.6 372.1 154.1C336.6 158.7 290 153.2 261.1 150.7C232.2 148.3 220.9 148.9 242.2 185.8C263.4 222.7 317.3 296 311.3 311.3C305.4 326.6 239.7 283.9 201.8 263C164 242.1 154 242.9 149.3 258.5C144.5 274.1 145.1 304.4 138.9 335.4C132.7 366.4 119.6 398.1 99.6 371.6C79.5 345.2 52.5 260.6 34.8 264C17 267.3 8.5 358.7 0 450L0 0Z"
            fill="#8b5428"></path>
        <path
            d="M300 0C289 11.6 277.9 23.3 278.6 36.7C279.3 50.1 291.7 65.2 289.8 77.6C287.9 90.1 271.7 99.7 248.1 102.8C224.4 105.8 193.4 102.1 174.1 100.5C154.8 98.9 147.3 99.3 161.4 123.9C175.6 148.5 211.5 197.3 207.5 207.5C203.6 217.7 159.8 189.3 134.5 175.3C109.3 161.4 102.6 162 99.5 172.3C96.4 182.7 96.8 202.9 92.6 223.6C88.5 244.2 79.7 265.4 66.4 247.8C53 230.1 35 173.7 23.2 176C11.3 178.2 5.7 239.1 0 300L0 0Z"
            fill="#d77825"></path>
        <path
            d="M150 0C144.5 5.8 139 11.6 139.3 18.3C139.6 25 145.8 32.6 144.9 38.8C143.9 45 135.8 49.9 124 51.4C112.2 52.9 96.7 51.1 87 50.2C77.4 49.4 73.6 49.6 80.7 61.9C87.8 74.2 105.8 98.7 103.8 103.8C101.8 108.9 79.9 94.6 67.3 87.7C54.7 80.7 51.3 81 49.8 86.2C48.2 91.4 48.4 101.5 46.3 111.8C44.2 122.1 39.9 132.7 33.2 123.9C26.5 115.1 17.5 86.9 11.6 88C5.7 89.1 2.8 119.6 0 150L0 0Z"
            fill="#ff8b20"></path>
    </g>
</svg>