<svg id="visual" viewBox="0 0 1920 800" width="1920" height="800" xmlns="http://www.w3.org/2000/svg"
    xmlns:xlink="http://www.w3.org/1999/xlink" version="1.1">
    <rect x="0" y="0" width="1920" height="800" fill="#222222"></rect>
    <defs>
        <linearGradient id="grad1_0" x1="58.3%" y1="0%" x2="100%" y2="100%">
            <stop offset="2.0000000000000036%" stop-color="#c99df4" stop-opacity="1"></stop>
            <stop offset="98%" stop-color="#c99df4" stop-opacity="1"></stop>
        </linearGradient>
    </defs>
    <defs>
        <linearGradient id="grad1_1" x1="58.3%" y1="0%" x2="100%" y2="100%">
            <stop offset="2.0000000000000036%" stop-color="#c99df4" stop-opacity="1"></stop>
            <stop offset="98%" stop-color="#8d71a7" stop-opacity="1"></stop>
        </linearGradient>
    </defs>
    <defs>
        <linearGradient id="grad1_2" x1="58.3%" y1="0%" x2="100%" y2="100%">
            <stop offset="2.0000000000000036%" stop-color="#554861" stop-opacity="1"></stop>
            <stop offset="98%" stop-color="#8d71a7" stop-opacity="1"></stop>
        </linearGradient>
    </defs>
    <defs>
        <linearGradient id="grad1_3" x1="58.3%" y1="0%" x2="100%" y2="100%">
            <stop offset="2.0000000000000036%" stop-color="#554861" stop-opacity="1"></stop>
            <stop offset="98%" stop-color="#222222" stop-opacity="1"></stop>
        </linearGradient>
    </defs>
    <defs>
        <linearGradient id="grad2_0" x1="0%" y1="0%" x2="41.7%" y2="100%">
            <stop offset="2.0000000000000036%" stop-color="#c99df4" stop-opacity="1"></stop>
            <stop offset="98%" stop-color="#c99df4" stop-opacity="1"></stop>
        </linearGradient>
    </defs>
    <defs>
        <linearGradient id="grad2_1" x1="0%" y1="0%" x2="41.7%" y2="100%">
            <stop offset="2.0000000000000036%" stop-color="#8d71a7" stop-opacity="1"></stop>
            <stop offset="98%" stop-color="#c99df4" stop-opacity="1"></stop>
        </linearGradient>
    </defs>
    <defs>
        <linearGradient id="grad2_2" x1="0%" y1="0%" x2="41.7%" y2="100%">
            <stop offset="2.0000000000000036%" stop-color="#8d71a7" stop-opacity="1"></stop>
            <stop offset="98%" stop-color="#554861" stop-opacity="1"></stop>
        </linearGradient>
    </defs>
    <defs>
        <linearGradient id="grad2_3" x1="0%" y1="0%" x2="41.7%" y2="100%">
            <stop offset="2.0000000000000036%" stop-color="#222222" stop-opacity="1"></stop>
            <stop offset="98%" stop-color="#554861" stop-opacity="1"></stop>
        </linearGradient>
    </defs>
    <g transform="translate(1920, 0)">
        <path
            d="M0 600C-21.9 543.4 -43.8 486.8 -57.4 436.2C-71 385.7 -76.3 341.2 -87.5 326.5C-98.6 311.8 -115.7 326.9 -142.4 343.7C-169.1 360.5 -205.4 378.9 -200 346.4C-194.6 313.9 -147.3 230.4 -188.7 245.9C-230.2 261.5 -360.4 376.1 -367.7 367.7C-375 359.3 -259.5 228 -253.1 194.2C-246.6 160.3 -349.3 223.9 -427.8 247C-506.3 270.1 -560.7 252.6 -513.7 212.8C-466.6 172.9 -318.1 110.7 -332.3 89C-346.4 67.4 -523.1 86.4 -594.9 78.3C-666.6 70.2 -633.3 35.1 -600 0L0 0Z"
            fill="#3b3440"></path>
        <path
            d="M0 450C-16.4 407.5 -32.9 365.1 -43.1 327.2C-53.3 289.3 -57.2 255.9 -65.6 244.9C-74 233.8 -86.7 245.2 -106.8 257.8C-126.8 270.4 -154.1 284.2 -150 259.8C-145.9 235.4 -110.4 172.8 -141.5 184.5C-172.6 196.1 -270.3 282 -275.8 275.8C-281.3 269.5 -194.6 171 -189.8 145.6C-185 120.3 -262 167.9 -320.9 185.3C-379.8 202.6 -420.5 189.5 -385.3 159.6C-350 129.7 -238.6 83 -249.2 66.8C-259.8 50.5 -392.4 64.8 -446.2 58.7C-499.9 52.7 -475 26.3 -450 0L0 0Z"
            fill="#705c83"></path>
        <path
            d="M0 300C-11 271.7 -21.9 243.4 -28.7 218.1C-35.5 192.8 -38.2 170.6 -43.7 163.2C-49.3 155.9 -57.8 163.4 -71.2 171.8C-84.5 180.2 -102.7 189.5 -100 173.2C-97.3 156.9 -73.6 115.2 -94.4 123C-115.1 130.7 -180.2 188 -183.8 183.8C-187.5 179.7 -129.8 114 -126.5 97.1C-123.3 80.2 -174.6 112 -213.9 123.5C-253.2 135 -280.4 126.3 -256.8 106.4C-233.3 86.5 -159.1 55.3 -166.1 44.5C-173.2 33.7 -261.6 43.2 -297.4 39.2C-333.3 35.1 -316.6 17.6 -300 0L0 0Z"
            fill="#aa87cd"></path>
        <path
            d="M0 150C-5.5 135.8 -11 121.7 -14.4 109.1C-17.8 96.4 -19.1 85.3 -21.9 81.6C-24.7 77.9 -28.9 81.7 -35.6 85.9C-42.3 90.1 -51.4 94.7 -50 86.6C-48.6 78.5 -36.8 57.6 -47.2 61.5C-57.5 65.4 -90.1 94 -91.9 91.9C-93.8 89.8 -64.9 57 -63.3 48.5C-61.7 40.1 -87.3 56 -107 61.8C-126.6 67.5 -140.2 63.2 -128.4 53.2C-116.7 43.2 -79.5 27.7 -83.1 22.3C-86.6 16.8 -130.8 21.6 -148.7 19.6C-166.6 17.6 -158.3 8.8 -150 0L0 0Z"
            fill="#c99df4"></path>
    </g>
    <g transform="translate(0, 800)">
        <path
            d="M0 -600C23.3 -577.9 46.6 -555.8 73.4 -557.2C100.2 -558.5 130.5 -583.3 155.3 -579.6C180.1 -575.8 199.5 -543.4 205.5 -496.1C211.5 -448.9 204.3 -386.7 201 -348.1C197.7 -309.6 198.5 -294.5 247.8 -322.9C297 -351.3 394.7 -423 415.1 -415.1C435.5 -407.1 378.5 -319.5 350.7 -269.1C322.8 -218.6 323.9 -205.3 344.7 -199C365.4 -192.7 405.8 -193.5 447.2 -185.2C488.5 -176.9 530.8 -159.5 495.5 -132.8C460.3 -106.1 347.5 -70 352 -46.3C356.5 -22.7 478.2 -11.3 600 0L0 0Z"
            fill="#3b3440"></path>
        <path
            d="M0 -450C17.5 -433.4 34.9 -416.9 55 -417.9C75.1 -418.9 97.8 -437.5 116.5 -434.7C135.1 -431.8 149.6 -407.5 154.1 -372.1C158.7 -336.6 153.2 -290 150.7 -261.1C148.3 -232.2 148.9 -220.9 185.8 -242.2C222.7 -263.4 296 -317.3 311.3 -311.3C326.6 -305.4 283.9 -239.7 263 -201.8C242.1 -164 242.9 -154 258.5 -149.3C274.1 -144.5 304.4 -145.1 335.4 -138.9C366.4 -132.7 398.1 -119.6 371.6 -99.6C345.2 -79.5 260.6 -52.5 264 -34.8C267.3 -17 358.7 -8.5 450 0L0 0Z"
            fill="#705c83"></path>
        <path
            d="M0 -300C11.6 -289 23.3 -277.9 36.7 -278.6C50.1 -279.3 65.2 -291.7 77.6 -289.8C90.1 -287.9 99.7 -271.7 102.8 -248.1C105.8 -224.4 102.1 -193.4 100.5 -174.1C98.9 -154.8 99.3 -147.3 123.9 -161.4C148.5 -175.6 197.3 -211.5 207.5 -207.5C217.7 -203.6 189.3 -159.8 175.3 -134.5C161.4 -109.3 162 -102.6 172.3 -99.5C182.7 -96.4 202.9 -96.8 223.6 -92.6C244.2 -88.5 265.4 -79.7 247.8 -66.4C230.1 -53 173.7 -35 176 -23.2C178.2 -11.3 239.1 -5.7 300 0L0 0Z"
            fill="#aa87cd"></path>
        <path
            d="M0 -150C5.8 -144.5 11.6 -139 18.3 -139.3C25 -139.6 32.6 -145.8 38.8 -144.9C45 -143.9 49.9 -135.8 51.4 -124C52.9 -112.2 51.1 -96.7 50.2 -87C49.4 -77.4 49.6 -73.6 61.9 -80.7C74.2 -87.8 98.7 -105.8 103.8 -103.8C108.9 -101.8 94.6 -79.9 87.7 -67.3C80.7 -54.7 81 -51.3 86.2 -49.8C91.4 -48.2 101.5 -48.4 111.8 -46.3C122.1 -44.2 132.7 -39.9 123.9 -33.2C115.1 -26.5 86.9 -17.5 88 -11.6C89.1 -5.7 119.6 -2.8 150 0L0 0Z"
            fill="#c99df4"></path>
    </g>
</svg>